<svg xmlns="http://www.w3.org/2000/svg" viewBox="0.00000664592 -0.00000448176 80 80.97">
	<path d="M5.42051 34.9761C6.6631 34.9743 7.86853 35.4051 8.83458 36.1964C9.80063 36.9877 10.4686 38.0913 10.7263 39.3221L17.9879 39.3221C18.2516 34.1831 20.2708 29.2966 23.7001 25.4986L18.5515 20.2947C17.4428 21.0378 16.102 21.3396 14.7868 21.1421C13.4716 20.9447 12.2749 20.2618 11.427 19.2249C10.579 18.1881 10.1396 16.8704 10.1933 15.5253C10.2469 14.1802 10.7898 12.9027 11.7176 11.9384C12.6454 10.9742 13.8925 10.3913 15.2192 10.3018C16.5458 10.2124 17.8583 10.6227 18.9041 11.4538C19.95 12.285 20.6555 13.4784 20.8848 14.8044C21.1142 16.1304 20.8512 17.4954 20.1465 18.637L25.3297 23.885C29.1064 20.4596 33.9384 18.4645 39.0038 18.239L39.0038 10.8811C37.6888 10.6352 36.5101 9.90558 35.6944 8.83269C34.8787 7.7598 34.4837 6.4194 34.5853 5.06936C34.6869 3.71932 35.278 2.45501 36.2448 1.51964C37.2116 0.584277 38.4859 0.0439324 39.8225 0.00255962C41.1592 -0.0388131 42.4637 0.421708 43.4851 1.29553C44.5066 2.16935 45.1728 3.39475 45.3557 4.73598C45.5386 6.07721 45.2251 7.43954 44.4757 8.56088C43.7262 9.68222 42.5937 10.4834 41.296 10.8102L41.296 18.2562C46.3138 18.5554 51.078 20.5897 54.7921 24.0189L59.9369 18.8101C59.1883 17.6886 58.8757 16.3264 59.0593 14.9857C59.2429 13.6449 59.9097 12.4203 60.9313 11.5473C61.953 10.6743 63.2574 10.2147 64.5937 10.2568C65.9299 10.299 67.2035 10.8399 68.1695 11.7756C69.1356 12.7113 69.7258 13.9756 69.8266 15.3253C69.9274 16.675 69.5317 18.0148 68.7156 19.0869C67.8996 20.1591 66.7208 20.8878 65.406 21.1329C64.0912 21.378 62.7334 21.1223 61.5936 20.4148L56.4054 25.6498C59.7935 29.4686 61.7678 34.3595 61.9915 39.4878L69.2158 39.4878C69.4547 38.228 70.1165 37.0906 71.089 36.2683C72.0616 35.446 73.285 34.9895 74.5519 34.9761C75.2659 34.9721 75.9737 35.1111 76.6345 35.385C77.2953 35.6589 77.8962 36.0624 78.4025 36.5722C78.9088 37.082 79.3105 37.6881 79.5847 38.3557C79.8589 39.0232 80 39.7391 80 40.462C80 41.185 79.8589 41.9008 79.5847 42.5684C79.3105 43.236 78.9088 43.8421 78.4025 44.3519C77.8962 44.8617 77.2953 45.2652 76.6345 45.5391C75.9737 45.813 75.2659 45.952 74.5519 45.948C73.342 45.966 72.1623 45.5657 71.2075 44.8131C70.2527 44.0605 69.58 43.0007 69.3006 41.8087L61.9742 41.8087C61.6935 46.8854 59.6916 51.7087 56.3065 55.4645L61.4209 60.652C62.5397 59.8903 63.8972 59.5746 65.232 59.7656C66.5669 59.9567 67.7848 60.6409 68.6513 61.6866C69.5178 62.7324 69.9715 64.0657 69.9253 65.4299C69.879 66.7941 69.3359 68.0927 68.4006 69.0758C67.4653 70.0589 66.2038 70.6568 64.8592 70.7546C63.5145 70.8524 62.1816 70.4431 61.1171 69.6055C60.0526 68.7679 59.3318 67.5612 59.0934 66.2177C58.855 64.8742 59.1159 63.4889 59.8259 62.3285L54.6808 57.1192C50.9407 60.5272 46.1573 62.5301 41.1323 62.7922L41.1323 70.1165C42.4399 70.4029 43.5966 71.1688 44.38 72.2668C45.1635 73.3648 45.5182 74.7173 45.3759 76.0642C45.2337 77.411 44.6045 78.657 43.6095 79.5625C42.6146 80.4679 41.324 80.9688 39.9862 80.9688C38.6484 80.9688 37.3578 80.4679 36.3628 79.5625C35.3679 78.657 34.7387 77.411 34.5965 76.0642C34.4542 74.7173 34.8089 73.3648 35.5924 72.2668C36.3758 71.1688 37.5325 70.4029 38.8401 70.1165L38.8401 62.7922C33.7711 62.5279 28.9493 60.4927 25.196 57.0331L20.0766 62.2166C20.8116 63.3491 21.107 64.7167 20.9059 66.0564C20.7049 67.396 20.0216 68.6131 18.9876 69.4734C17.9536 70.3337 16.6419 70.7764 15.3049 70.7164C13.9679 70.6564 12.7 70.0978 11.7452 69.1483C10.7905 68.1987 10.2163 66.9252 10.1331 65.5728C10.0499 64.2204 10.4637 62.8845 11.2947 61.8224C12.1258 60.7603 13.3154 60.0468 14.6347 59.8193C15.9541 59.5918 17.3099 59.8664 18.4413 60.5902L23.5805 55.3676C20.2114 51.5809 18.2361 46.7332 17.9879 41.6429L10.7096 41.6429C10.4897 42.6532 9.99214 43.5799 9.27433 44.3162C8.55652 45.0524 7.64774 45.5681 6.65286 45.8038C5.65798 46.0396 4.61754 45.9856 3.65163 45.6483C2.68571 45.311 1.83368 44.704 1.19385 43.8974C0.554036 43.0909 0.152501 42.1175 0.0355959 41.0898C-0.0813169 40.0621 0.0911685 39.0218 0.533132 38.0891C0.975103 37.1563 1.66854 36.3691 2.53343 35.8183C3.39832 35.2675 4.3994 34.9755 5.42116 34.9761L5.42051 34.9761ZM17.7566 13.4959C17.17 12.9019 16.3743 12.5682 15.5447 12.5682C14.7151 12.5682 13.9194 12.9018 13.3328 13.4958C12.7461 14.0897 12.4165 14.8953 12.4165 15.7353C12.4164 16.5753 12.746 17.3809 13.3326 17.9749C13.6225 18.2718 13.9674 18.5078 14.3477 18.6693C14.7279 18.8308 15.136 18.9145 15.5483 18.9158C15.9607 18.917 16.3692 18.8357 16.7504 18.6765C17.1316 18.5173 17.4779 18.2833 17.7695 17.9881C18.0611 17.6929 18.2921 17.3422 18.4494 16.9563C18.6066 16.5703 18.687 16.1567 18.6858 15.7392C18.6846 15.3217 18.6019 14.9086 18.4424 14.5236C18.2829 14.1385 18.0499 13.7892 17.7566 13.4958L17.7566 13.4959ZM62.2158 17.9749C62.6533 18.4179 63.2107 18.7196 63.8175 18.8418C64.4243 18.9641 65.0534 18.9014 65.625 18.6617C66.1966 18.422 66.6852 18.016 67.029 17.4951C67.3727 16.9742 67.5562 16.3619 67.5562 15.7354C67.5562 15.1089 67.3727 14.4966 67.029 13.9757C66.6852 13.4548 66.1966 13.0488 65.625 12.8091C65.0534 12.5694 64.4243 12.5067 63.8175 12.629C63.2107 12.7512 62.6533 13.0529 62.2158 13.4959C61.9253 13.79 61.6948 14.1391 61.5375 14.5233C61.3803 14.9076 61.2993 15.3195 61.2993 15.7354C61.2993 16.1513 61.3803 16.5632 61.5375 16.9475C61.6948 17.3317 61.9253 17.6808 62.2158 17.9749ZM74.5519 43.6498C75.1706 43.6498 75.7754 43.464 76.2898 43.116C76.8042 42.7679 77.2051 42.2732 77.4419 41.6945C77.6786 41.1157 77.7406 40.4789 77.6198 39.8645C77.4991 39.2501 77.2012 38.6858 76.7637 38.2428C76.3262 37.7999 75.7688 37.4982 75.162 37.376C74.5551 37.2538 73.9262 37.3166 73.3546 37.5563C72.783 37.796 72.2944 38.202 71.9507 38.7228C71.607 39.2437 71.4235 39.8561 71.4235 40.4825C71.4245 41.3223 71.7544 42.1273 72.3409 42.7211C72.9273 43.3149 73.7225 43.6489 74.5519 43.6498ZM62.2158 67.4691C62.5063 67.7632 62.8511 67.9965 63.2306 68.1557C63.6101 68.3149 64.0169 68.3968 64.4277 68.3968C64.8385 68.3968 65.2453 68.3149 65.6248 68.1558C66.0043 67.9966 66.3492 67.7633 66.6396 67.4692C66.9301 67.1752 67.1606 66.826 67.3178 66.4418C67.475 66.0575 67.5559 65.6456 67.5559 65.2297C67.5559 64.8138 67.475 64.4019 67.3179 64.0177C67.1607 63.6334 66.9303 63.2842 66.6398 62.9901C66.0737 62.4159 65.3111 62.0841 64.51 62.0635C63.709 62.0428 62.9307 62.3349 62.3365 62.8792C62.2539 63.0107 62.1455 63.1235 62.018 63.2108C61.5214 63.8181 61.2665 64.5912 61.303 65.3788C61.3396 66.1663 61.6651 66.9118 62.2158 67.4692L62.2158 67.4691ZM17.7566 62.9901C17.3191 62.5471 16.7617 62.2454 16.1549 62.1232C15.5481 62.0009 14.919 62.0636 14.3474 62.3033C13.7758 62.543 13.2872 62.949 12.9434 63.4699C12.5997 63.9907 12.4162 64.6031 12.4162 65.2296C12.4162 65.8561 12.5997 66.4684 12.9434 66.9893C13.2872 67.5102 13.7758 67.9162 14.3474 68.1559C14.919 68.3956 15.5481 68.4583 16.1549 68.336C16.7617 68.2138 17.3191 67.9121 17.7566 67.4691C18.0471 67.175 18.2776 66.8259 18.4349 66.4417C18.5921 66.0574 18.6731 65.6455 18.6731 65.2296C18.6731 64.8137 18.5921 64.4018 18.4349 64.0175C18.2776 63.6333 18.0471 63.2842 17.7566 62.9901ZM43.1144 5.48494C43.1144 4.85851 42.931 4.24614 42.5872 3.72527C42.2435 3.20441 41.7549 2.79844 41.1833 2.55872C40.6117 2.31899 39.9827 2.25627 39.3759 2.37848C38.7691 2.50069 38.2117 2.80235 37.7742 3.24531C37.3367 3.68826 37.0388 4.25263 36.9181 4.86703C36.7974 5.48143 36.8593 6.11827 37.0961 6.69702C37.3329 7.27578 37.7338 7.77045 38.2483 8.11848C38.7627 8.46651 39.3675 8.65227 39.9862 8.65227C40.8156 8.65126 41.6107 8.31723 42.1971 7.72346C42.7835 7.12969 43.1134 6.32466 43.1144 5.48494ZM36.858 75.4801C36.8574 76.0967 37.0345 76.7001 37.3678 77.2162C37.701 77.7324 38.1758 78.1388 38.7339 78.3857C39.292 78.6325 39.9091 78.7091 40.5095 78.6059C41.11 78.5028 41.6676 78.2244 42.114 77.8049C42.5605 77.3855 42.8763 76.8432 43.0227 76.2447C43.1691 75.6462 43.1398 75.0173 42.9383 74.4354C42.7368 73.8535 42.372 73.3438 41.8885 72.9688C41.405 72.5938 40.8239 72.3699 40.2166 72.3245C40.0646 72.3559 39.9078 72.3559 39.7558 72.3245C38.9689 72.3838 38.2331 72.7418 37.6958 73.327C37.1585 73.9121 36.8592 74.6811 36.858 75.4801ZM39.9862 60.5013C43.8895 60.5013 47.7052 59.3294 50.9508 57.1337C54.1963 54.938 56.7258 51.8172 58.2196 48.1659C59.7133 44.5146 60.1042 40.4968 59.3427 36.6206C58.5812 32.7444 56.7015 29.1839 53.9414 26.3893C51.1814 23.5947 47.6648 21.6916 43.8364 20.9206C40.0081 20.1495 36.0399 20.5453 32.4337 22.0577C28.8275 23.5701 25.7452 26.1313 23.5766 29.4174C21.408 32.7034 20.2505 36.5668 20.2505 40.519C20.2564 45.8168 22.3376 50.8959 26.0375 54.642C29.7374 58.3882 34.7538 60.4954 39.9862 60.5013ZM5.42051 43.6498C6.03921 43.6498 6.64402 43.4641 7.15846 43.116C7.67289 42.768 8.07384 42.2733 8.3106 41.6946C8.54738 41.1158 8.60933 40.479 8.48862 39.8646C8.36792 39.2502 8.06999 38.6858 7.6325 38.2429C7.195 37.7999 6.63761 37.4982 6.0308 37.376C5.42398 37.2538 4.795 37.3165 4.22339 37.5563C3.65178 37.796 3.16321 38.202 2.81949 38.7228C2.47575 39.2437 2.29228 39.8561 2.29228 40.4825C2.29323 41.3222 2.62312 42.1273 3.20957 42.7211C3.79602 43.3148 4.59114 43.6488 5.42051 43.6498Z
M26.3147 31.8207L39.4131 24.164C39.5874 24.0622 39.785 24.0085 39.9862 24.0085C40.1874 24.0085 40.385 24.0622 40.5592 24.164L53.6577 31.8207C53.8319 31.9226 53.9766 32.0691 54.0772 32.2455C54.1778 32.4219 54.2307 32.6221 54.2307 32.8258L54.2307 48.1395C54.2307 48.3432 54.1778 48.5434 54.0772 48.7198C53.9766 48.8962 53.8319 49.0427 53.6577 49.1446L40.5592 56.8013C40.385 56.9031 40.1874 56.9568 39.9862 56.9568C39.785 56.9568 39.5874 56.9031 39.4131 56.8013L26.3147 49.1446C26.1405 49.0427 25.9958 48.8962 25.8952 48.7198C25.7946 48.5434 25.7416 48.3432 25.7417 48.1395L25.7417 32.8258C25.7416 32.6221 25.7946 32.4219 25.8952 32.2455C25.9958 32.0691 26.1405 31.9226 26.3147 31.8207ZM39.9862 26.5089L35.8586 28.9216L46.6639 35.2377L50.7916 32.8248L39.9862 26.5089ZM41.1323 53.7865L51.9385 47.4696L51.9385 34.8347L41.1323 41.1517L41.1323 53.7865ZM39.9862 39.1417L44.3717 36.5781L33.5663 30.2621L29.18 32.8251L39.9862 39.1417ZM28.0339 47.4696L38.8401 53.7865L38.8401 41.1517L28.0339 34.8347L28.0339 47.4696Z" fill="#ffffff"/>
</svg>